<svg width="64" height="72" viewBox="0 0 64 72" fill="none" xmlns="http://www.w3.org/2000/svg">
<path d="M27.5545 37.3409C30.5729 42.1279 34.4512 43.6208 38.573 42.6635C38.638 42.6473 38.638 42.5498 38.5568 42.5336C34.7109 42.2903 30.0697 38.0547 27.2137 33.9817C25.3475 31.304 20.8362 27.9612 18.6131 28.1235C18.532 28.1559 17.2174 28.3669 17.2174 28.3669C15.2864 28.6591 12.4466 28.805 9.28218 28.8538C7.91907 28.87 6.18271 30.0384 6.21517 32.0181C6.49104 33.5597 8.09758 33.2515 8.86027 32.9594C10.0449 32.505 10.7914 31.7584 12.333 31.9045C15.757 32.2291 18.9701 35.6693 22.6213 36.6106C23.0432 36.8377 23.0594 36.9189 23.0594 37.0812C23.0432 37.6004 22.7999 37.6004 22.5726 37.5192C20.6253 36.9513 18.1425 38.0873 16.4386 37.4218C15.1241 36.9189 15.0592 36.6592 14.0531 35.7667C12.9172 34.7767 11.5703 33.1541 9.41202 34.7605C9.18483 34.9553 8.84404 35.1825 8.56817 35.2311C7.98397 35.361 7.39978 35.3123 6.8156 35.004C6.79937 34.9878 6.78314 35.0202 6.79937 35.0364C7.07524 35.2961 7.36733 35.6531 7.49715 36.1075C7.72434 36.9027 7.52961 37.4868 7.52961 37.4868L7.26996 38.1521C7.22128 38.2982 7.17261 38.428 7.12391 38.5253L7.04277 38.7526C6.29631 40.7324 4.85206 45.1949 5.19283 46.055C5.71212 47.337 8.21116 46.412 9.67165 46.4444C10.4668 46.4606 11.2782 46.9476 11.5865 46.915C12.1383 46.8664 12.2194 46.2821 11.9922 45.8765C11.8299 45.6006 11.4242 45.3248 11.051 45.1787C10.6778 45.0489 10.1585 45.2436 9.99621 44.919C10.2396 44.2699 11.6027 44.6919 12.0896 44.984C12.3979 45.1625 14.5562 46.8177 12.7711 48.8461C12.5439 49.1058 11.6839 49.4142 11.0672 49.479C10.7427 48.3917 9.50937 48.7325 8.86027 49.1058C8.37344 49.3816 8.40591 50.3229 8.32477 50.8909C8.27607 51.2479 8.24363 51.3614 8.13002 51.7347C8.01644 52.0755 8.06511 52.3838 8.06511 52.3838C8.97387 52.2702 9.47692 51.7509 10.0449 51.6049C10.5479 51.475 11.0672 51.9943 11.5541 52.189C12.7062 52.6758 13.6961 52.8869 15.2377 52.8869C15.0105 53.974 13.8259 54.1363 13.3229 54.1363C12.69 54.1525 12.0571 53.7307 11.3269 53.7307C10.5804 53.7307 9.89884 54.1363 9.18483 54.0715C9.15237 54.0715 9.13613 54.1039 9.15236 54.1201C9.29841 54.2662 9.41202 54.5259 9.44446 54.6718C9.50937 55.0613 9.11992 55.4994 9.02255 55.8727C9.02255 55.9052 9.05501 55.9214 9.08746 55.8889C9.46069 55.3371 10.4019 55.1912 11.3431 55.2074C12.1058 55.2074 12.7711 55.4345 13.3553 55.2236C13.6474 55.11 13.6312 54.7854 13.9557 54.8342C14.1667 54.8666 14.1829 55.3371 14.1505 55.4508C13.8584 56.392 12.836 56.8464 12.0246 57.2846C12.0084 57.3008 11.408 57.7875 11.262 58.3393C11.051 59.1831 11.1484 59.313 11.2133 59.7674C11.4405 60.7897 12.2518 63.0453 17.1688 61.5523C17.964 61.309 25.2827 59.8647 28.8689 56.2946C28.8851 56.2622 32.8122 52.0429 28.8527 46.6392C28.1225 45.6492 27.9602 45.1463 27.9926 44.2213C28.2684 40.8298 28.0089 38.6228 27.1975 36.9513C27.3597 37.1136 27.4896 37.2271 27.5545 37.3409ZM9.47693 35.9939C9.44446 35.864 9.34711 35.7019 9.33088 35.5881C9.83393 35.2149 10.6453 35.2311 11.2295 35.361C12.4953 35.6693 13.2579 37.146 14.1829 37.5356C13.8097 37.8926 13.2255 38.1685 12.479 38.3144C12.5926 38.0547 12.8523 37.3083 12.1545 36.8539C12.0246 37.503 11.5541 37.6653 11.197 37.8762C11.1321 38.0873 11.1484 38.1685 11.1808 38.282C10.8076 37.9899 10.84 37.9736 10.6778 37.503C10.8887 37.3895 10.9861 37.2271 11.0023 37.0324C11.1321 36.0751 10.2234 35.7343 9.47693 35.9939ZM15.4811 38.7688C15.4324 38.9473 15.2215 39.4179 15.0917 39.564C14.4912 40.3104 13.3066 40.8622 12.3492 40.4889C11.765 40.2617 10.4019 39.8237 10.9699 38.9311C12.4303 39.6613 13.7123 38.4929 14.686 37.9088C14.9619 38.0547 15.2053 38.1685 15.3838 38.2494C15.5623 38.3632 15.5785 38.4767 15.4811 38.7688Z" fill="#C4C4C4"/>
<path d="M27.5545 37.3409C30.5729 42.1279 34.4512 43.6208 38.573 42.6635C38.638 42.6473 38.638 42.5498 38.5568 42.5336C34.7109 42.2903 30.0697 38.0547 27.2137 33.9817C25.3475 31.304 20.8362 27.9612 18.6131 28.1235C18.532 28.1559 17.2174 28.3669 17.2174 28.3669C15.2864 28.6591 12.4466 28.805 9.28218 28.8538C7.91907 28.87 6.18271 30.0384 6.21517 32.0181C6.49104 33.5597 8.09758 33.2515 8.86027 32.9594C10.0449 32.505 10.7914 31.7584 12.333 31.9045C15.757 32.2291 18.9701 35.6693 22.6213 36.6106C23.0432 36.8377 23.0594 36.9189 23.0594 37.0812C23.0432 37.6004 22.7999 37.6004 22.5726 37.5192C20.6253 36.9513 18.1425 38.0873 16.4386 37.4218C15.1241 36.9189 15.0592 36.6592 14.0531 35.7667C12.9172 34.7767 11.5703 33.1541 9.41202 34.7605C9.18483 34.9553 8.84404 35.1825 8.56817 35.2311C7.98397 35.361 7.39978 35.3123 6.8156 35.004C6.79937 34.9878 6.78314 35.0202 6.79937 35.0364C7.07524 35.2961 7.36733 35.6531 7.49715 36.1075C7.72434 36.9027 7.52961 37.4868 7.52961 37.4868L7.26996 38.1521C7.22128 38.2982 7.17261 38.428 7.12391 38.5253L7.04277 38.7526C6.29631 40.7324 4.85206 45.1949 5.19283 46.055C5.71212 47.337 8.21116 46.412 9.67165 46.4444C10.4668 46.4606 11.2782 46.9476 11.5865 46.915C12.1383 46.8664 12.2194 46.2821 11.9922 45.8765C11.8299 45.6006 11.4242 45.3248 11.051 45.1787C10.6778 45.0489 10.1585 45.2436 9.99621 44.919C10.2396 44.2699 11.6027 44.6919 12.0896 44.984C12.3979 45.1625 14.5562 46.8177 12.7711 48.8461C12.5439 49.1058 11.6839 49.4142 11.0672 49.479C10.7427 48.3917 9.50937 48.7325 8.86027 49.1058C8.37344 49.3816 8.40591 50.3229 8.32477 50.8909C8.27607 51.2479 8.24363 51.3614 8.13002 51.7347C8.01644 52.0755 8.06511 52.3838 8.06511 52.3838C8.97387 52.2702 9.47692 51.7509 10.0449 51.6049C10.5479 51.475 11.0672 51.9943 11.5541 52.189C12.7062 52.6758 13.6961 52.8869 15.2377 52.8869C15.0105 53.974 13.8259 54.1363 13.3229 54.1363C12.69 54.1525 12.0571 53.7307 11.3269 53.7307C10.5804 53.7307 9.89884 54.1363 9.18483 54.0715C9.15237 54.0715 9.13613 54.1039 9.15236 54.1201C9.29841 54.2662 9.41202 54.5259 9.44446 54.6718C9.50937 55.0613 9.11992 55.4994 9.02255 55.8727C9.02255 55.9052 9.05501 55.9214 9.08746 55.8889C9.46069 55.3371 10.4019 55.1912 11.3431 55.2074C12.1058 55.2074 12.7711 55.4345 13.3553 55.2236C13.6474 55.11 13.6312 54.7854 13.9557 54.8342C14.1667 54.8666 14.1829 55.3371 14.1505 55.4508C13.8584 56.392 12.836 56.8464 12.0246 57.2846C12.0084 57.3008 11.408 57.7875 11.262 58.3393C11.051 59.1831 11.1484 59.313 11.2133 59.7674C11.4405 60.7897 12.2518 63.0453 17.1688 61.5523C17.964 61.309 25.2827 59.8647 28.8689 56.2946C28.8851 56.2622 32.8122 52.0429 28.8527 46.6392C28.1225 45.6492 27.9602 45.1463 27.9926 44.2213C28.2684 40.8298 28.0089 38.6228 27.1975 36.9513C27.3597 37.1136 27.4896 37.2271 27.5545 37.3409ZM9.47693 35.9939C9.44446 35.864 9.34711 35.7019 9.33088 35.5881C9.83393 35.2149 10.6453 35.2311 11.2295 35.361C12.4953 35.6693 13.2579 37.146 14.1829 37.5356C13.8097 37.8926 13.2255 38.1685 12.479 38.3144C12.5926 38.0547 12.8523 37.3083 12.1545 36.8539C12.0246 37.503 11.5541 37.6653 11.197 37.8762C11.1321 38.0873 11.1484 38.1685 11.1808 38.282C10.8076 37.9899 10.84 37.9736 10.6778 37.503C10.8887 37.3895 10.9861 37.2271 11.0023 37.0324C11.1321 36.0751 10.2234 35.7343 9.47693 35.9939ZM15.4811 38.7688C15.4324 38.9473 15.2215 39.4179 15.0917 39.564C14.4912 40.3104 13.3066 40.8622 12.3492 40.4889C11.765 40.2617 10.4019 39.8237 10.9699 38.9311C12.4303 39.6613 13.7123 38.4929 14.686 37.9088C14.9619 38.0547 15.2053 38.1685 15.3838 38.2494C15.5623 38.3632 15.5785 38.4767 15.4811 38.7688Z" fill="white"/>
<path d="M49.5105 51.2803C56.3747 53.2114 52.8047 57.0411 55.3686 59.2968C55.9365 58.6314 56.4883 57.9499 57.0076 57.2358C55.8392 54.7368 56.4559 51.8645 49.5267 51.1668C49.4617 51.1506 49.4455 51.2641 49.5105 51.2803Z" fill="#C4C4C4"/>
<path d="M49.5105 51.2803C56.3747 53.2114 52.8047 57.0411 55.3686 59.2968C55.9365 58.6314 56.4883 57.9499 57.0076 57.2358C55.8392 54.7368 56.4559 51.8645 49.5267 51.1668C49.4617 51.1506 49.4455 51.2641 49.5105 51.2803Z" fill="white"/>
<path d="M51.0033 63.6133C50.7275 63.4186 50.4678 63.2075 50.1919 62.9966C49.9485 62.8019 48.7315 61.7634 48.4881 61.5523C48.4881 62.6396 48.5691 64.1163 48.5043 65.4956C49.3643 64.9115 50.1919 64.2786 51.0033 63.6133Z" fill="#C4C4C4"/>
<path d="M51.0033 63.6133C50.7275 63.4186 50.4678 63.2075 50.1919 62.9966C49.9485 62.8019 48.7315 61.7634 48.4881 61.5523C48.4881 62.6396 48.5691 64.1163 48.5043 65.4956C49.3643 64.9115 50.1919 64.2786 51.0033 63.6133Z" fill="white"/>
<path d="M45.9728 67.1184C46.411 64.6356 46.6057 61.455 45.989 59.6862C44.9179 58.9398 44.0741 58.5178 42.9383 57.8687C42.6298 61.2765 41.5751 64.5707 40.0173 67.6216C39.6115 68.4004 39.0436 69.4065 38.4269 70.3964C41.072 69.585 43.6035 68.4816 45.9728 67.1184Z" fill="#C4C4C4"/>
<path d="M45.9728 67.1184C46.411 64.6356 46.6057 61.455 45.989 59.6862C44.9179 58.9398 44.0741 58.5178 42.9383 57.8687C42.6298 61.2765 41.5751 64.5707 40.0173 67.6216C39.6115 68.4004 39.0436 69.4065 38.4269 70.3964C41.072 69.585 43.6035 68.4816 45.9728 67.1184Z" fill="white"/>
<path d="M39.6765 60.8708C40.5203 58.4854 38.8327 57.1222 39.6279 52.5785L39.7089 51.9781C38.07 51.4912 34.5973 51.4426 33.7697 52.757C32.1955 55.3047 31.514 66.6316 25.2663 71.8083C26.1751 71.8731 27.1164 71.9218 28.0413 71.9218C29.8426 71.9218 31.5952 71.7919 33.3315 71.5324C35.7494 69.439 37.7778 66.2908 39.6765 60.8708Z" fill="#C4C4C4"/>
<path d="M39.6765 60.8708C40.5203 58.4854 38.8327 57.1222 39.6279 52.5785L39.7089 51.9781C38.07 51.4912 34.5973 51.4426 33.7697 52.757C32.1955 55.3047 31.514 66.6316 25.2663 71.8083C26.1751 71.8731 27.1164 71.9218 28.0413 71.9218C29.8426 71.9218 31.5952 71.7919 33.3315 71.5324C35.7494 69.439 37.7778 66.2908 39.6765 60.8708Z" fill="white"/>
<path d="M0.259509 27.8532C-0.389595 27.5611 0.227054 26.6686 1.57394 24.8349C11.3916 11.3659 37.5993 18.7982 39.2707 18.5385C40.5203 18.3438 22.5562 9.07782 9.31451 16.0557C7.01019 17.2727 1.55772 19.5122 1.21694 18.5385C1.21694 18.5385 7.61062 15.3417 10.418 12.7939C10.5803 12.6479 11.4403 11.9339 12.2517 11.4308C17.2822 8.41248 23.0756 7.00067 28.9987 7.35768C44.8692 8.29888 57.0236 21.7354 56.0987 37.2976C56.0337 38.3361 55.9202 39.3586 55.7417 40.3647C54.979 39.391 54.3299 38.466 54.2812 38.3199C54.2812 38.3199 56.3584 13.1996 29.7937 9.1914C24.9579 8.46116 19.8462 9.24008 16.3087 11.301C17.4933 11.2361 18.6291 11.2036 19.5867 11.0413C31.8547 8.94798 52.6584 16.2666 51.8957 35.3178C51.8633 35.9345 43.7981 23.0497 31.0433 20.6481C16.7305 17.9542 10.061 22.0112 10.061 22.0112C10.061 22.0112 19.5379 20.7942 29.6802 22.8226C41.3153 25.1431 50.2081 34.2469 54.8329 43.1396C54.5085 43.7886 50.6949 43.4478 49.7538 42.2958C46.7678 38.6283 38.8325 29.0702 28.4955 26.6036C7.43211 21.5893 1.08712 28.2426 0.259509 27.8532Z" fill="#C4C4C4"/>
<path d="M0.259509 27.8532C-0.389595 27.5611 0.227054 26.6686 1.57394 24.8349C11.3916 11.3659 37.5993 18.7982 39.2707 18.5385C40.5203 18.3438 22.5562 9.07782 9.31451 16.0557C7.01019 17.2727 1.55772 19.5122 1.21694 18.5385C1.21694 18.5385 7.61062 15.3417 10.418 12.7939C10.5803 12.6479 11.4403 11.9339 12.2517 11.4308C17.2822 8.41248 23.0756 7.00067 28.9987 7.35768C44.8692 8.29888 57.0236 21.7354 56.0987 37.2976C56.0337 38.3361 55.9202 39.3586 55.7417 40.3647C54.979 39.391 54.3299 38.466 54.2812 38.3199C54.2812 38.3199 56.3584 13.1996 29.7937 9.1914C24.9579 8.46116 19.8462 9.24008 16.3087 11.301C17.4933 11.2361 18.6291 11.2036 19.5867 11.0413C31.8547 8.94798 52.6584 16.2666 51.8957 35.3178C51.8633 35.9345 43.7981 23.0497 31.0433 20.6481C16.7305 17.9542 10.061 22.0112 10.061 22.0112C10.061 22.0112 19.5379 20.7942 29.6802 22.8226C41.3153 25.1431 50.2081 34.2469 54.8329 43.1396C54.5085 43.7886 50.6949 43.4478 49.7538 42.2958C46.7678 38.6283 38.8325 29.0702 28.4955 26.6036C7.43211 21.5893 1.08712 28.2426 0.259509 27.8532Z" fill="white"/>
<path d="M39.4656 37.5842C35.9929 37.6491 33.6886 31.1255 27.6193 28.9186C27.5546 28.8862 27.5708 28.7888 27.6519 28.805C34.8732 29.5029 36.6257 35.361 39.498 37.4706C39.5467 37.503 39.5142 37.5842 39.4656 37.5842ZM39.5305 40.5213C36.1876 39.142 29.4045 29.3082 23.3678 28.5616C23.3028 28.5454 23.2704 28.6591 23.3352 28.6753C28.1711 30.7849 34.9218 40.4727 39.498 40.6351C39.5791 40.6351 39.5953 40.5375 39.5305 40.5213ZM40.2282 49.3005C36.8205 43.1827 33.1368 49.2193 29.0798 41.0569C29.0474 40.9919 28.9501 41.0245 28.9663 41.0893C30.0211 51.6697 37.0314 47.337 40.147 49.3816C40.1958 49.4142 40.2608 49.3654 40.2282 49.3005Z" fill="#C4C4C4"/>
<path d="M39.4656 37.5842C35.9929 37.6491 33.6886 31.1255 27.6193 28.9186C27.5546 28.8862 27.5708 28.7888 27.6519 28.805C34.8732 29.5029 36.6257 35.361 39.498 37.4706C39.5467 37.503 39.5142 37.5842 39.4656 37.5842ZM39.5305 40.5213C36.1876 39.142 29.4045 29.3082 23.3678 28.5616C23.3028 28.5454 23.2704 28.6591 23.3352 28.6753C28.1711 30.7849 34.9218 40.4727 39.498 40.6351C39.5791 40.6351 39.5953 40.5375 39.5305 40.5213ZM40.2282 49.3005C36.8205 43.1827 33.1368 49.2193 29.0798 41.0569C29.0474 40.9919 28.9501 41.0245 28.9663 41.0893C30.0211 51.6697 37.0314 47.337 40.147 49.3816C40.1958 49.4142 40.2608 49.3654 40.2282 49.3005Z" fill="white"/>
<path d="M52.8695 61.5361C48.9587 56.2623 41.916 57.1061 42.6786 51.4264C42.6948 51.3615 42.776 51.3453 42.7922 51.4101C44.3662 55.0451 51.0195 51.5562 52.9832 61.4875C52.9994 61.5523 52.9182 61.6011 52.8695 61.5361Z" fill="#C4C4C4"/>
<path d="M52.8695 61.5361C48.9587 56.2623 41.916 57.1061 42.6786 51.4264C42.6948 51.3615 42.776 51.3453 42.7922 51.4101C44.3662 55.0451 51.0195 51.5562 52.9832 61.4875C52.9994 61.5523 52.9182 61.6011 52.8695 61.5361Z" fill="white"/>
<path d="M48.0986 52.2053C33.8833 45.8765 45.3399 41.1705 40.6014 36.1563C40.5852 36.1399 40.6014 36.1075 40.634 36.1237C47.7903 42.1442 39.0436 46.4769 48.1635 52.0917C48.2121 52.1403 48.1635 52.2377 48.0986 52.2053Z" fill="#C4C4C4"/>
<path d="M48.0986 52.2053C33.8833 45.8765 45.3399 41.1705 40.6014 36.1563C40.5852 36.1399 40.6014 36.1075 40.634 36.1237C47.7903 42.1442 39.0436 46.4769 48.1635 52.0917C48.2121 52.1403 48.1635 52.2377 48.0986 52.2053Z" fill="white"/>
<path d="M58.0461 53.1628C56.326 46.5744 44.4312 50.761 45.9078 41.8033C45.924 41.7385 46.0052 41.7385 46.0216 41.8033C48.3258 49.7711 59.2145 41.1868 58.1597 53.1628C58.1597 53.2276 58.0623 53.2276 58.0461 53.1628Z" fill="#C4C4C4"/>
<path d="M58.0461 53.1628C56.326 46.5744 44.4312 50.761 45.9078 41.8033C45.924 41.7385 46.0052 41.7385 46.0216 41.8033C48.3258 49.7711 59.2145 41.1868 58.1597 53.1628C58.1597 53.2276 58.0623 53.2276 58.0461 53.1628Z" fill="white"/>
<path d="M56.9427 42.3065C57.2835 40.7648 57.5106 39.1908 57.608 37.6004C58.5817 21.2267 45.7943 7.09254 29.0798 6.10264C23.0108 5.74564 17.0553 7.14122 11.8624 10.1595C11.7975 10.1758 11.7163 10.192 11.6514 10.192L8.84406 5.56714C15.2377 1.51024 22.5888 -0.38839 30.1833 0.0659819C49.9649 1.2506 65.1051 18.2896 63.9367 38.071C63.6772 42.5336 62.6061 46.8015 60.7886 50.7935C60.0908 48.0347 58.8413 45.2274 56.9427 42.3065Z" fill="#C4C4C4"/>
<path d="M56.9427 42.3065C57.2835 40.7648 57.5106 39.1908 57.608 37.6004C58.5817 21.2267 45.7943 7.09254 29.0798 6.10264C23.0108 5.74564 17.0553 7.14122 11.8624 10.1595C11.7975 10.1758 11.7163 10.192 11.6514 10.192L8.84406 5.56714C15.2377 1.51024 22.5888 -0.38839 30.1833 0.0659819C49.9649 1.2506 65.1051 18.2896 63.9367 38.071C63.6772 42.5336 62.6061 46.8015 60.7886 50.7935C60.0908 48.0347 58.8413 45.2274 56.9427 42.3065Z" fill="white"/>
</svg>
